<svg xmlns="http://www.w3.org/2000/svg" xmlns:xlink="http://www.w3.org/1999/xlink" width="400" zoomAndPan="magnify" viewBox="0 0 300 299.999988" height="400" preserveAspectRatio="xMidYMid meet" version="1.0"><path fill="#663233" d="M 269.738281 143.839844 C 269.789062 143.839844 269.839844 143.835938 269.890625 143.824219 C 281.617188 141.382812 297.5 141.210938 297.65625 141.210938 C 298.0625 141.207031 298.386719 140.875 298.382812 140.472656 C 298.378906 140.070312 298.050781 139.746094 297.652344 139.746094 C 297.648438 139.746094 297.648438 139.746094 297.644531 139.746094 C 297.484375 139.75 281.460938 139.921875 269.589844 142.394531 C 269.195312 142.476562 268.941406 142.863281 269.023438 143.257812 C 269.097656 143.601562 269.402344 143.839844 269.738281 143.839844 Z M 269.738281 143.839844 " fill-opacity="1" fill-rule="nonzero"/><path fill="#663233" d="M 299.105469 148.101562 C 299.457031 148.101562 299.769531 147.847656 299.824219 147.484375 C 299.890625 147.085938 299.617188 146.710938 299.21875 146.648438 C 298.40625 146.515625 279.207031 143.460938 269.808594 144.703125 C 269.40625 144.753906 269.125 145.125 269.175781 145.523438 C 269.230469 145.925781 269.597656 146.207031 270 146.152344 C 279.1875 144.941406 298.789062 148.0625 298.988281 148.09375 C 299.027344 148.097656 299.066406 148.101562 299.105469 148.101562 Z M 299.105469 148.101562 " fill-opacity="1" fill-rule="nonzero"/><path fill="#ed8c3c" d="M 251.734375 163.992188 C 257.394531 165.257812 264.46875 166.351562 272.640625 166.515625 C 281.503906 166.691406 289.148438 165.730469 295.15625 164.546875 C 295.449219 163.578125 295.527344 162.679688 295.445312 161.84375 C 294.308594 150.351562 262.414062 145.5 259.207031 145.035156 C 256.71875 151.351562 254.226562 157.671875 251.734375 163.992188 Z M 251.734375 163.992188 " fill-opacity="1" fill-rule="nonzero"/><path fill="#ed8c3c" d="M 62.433594 158.589844 C 62.710938 193.425781 80.226562 223.261719 92.699219 228.449219 C 93.8125 228.917969 96.605469 230.074219 98.296875 228.824219 C 102.421875 225.765625 96.539062 210.898438 91.199219 199.308594 C 97.425781 200.042969 102.296875 199.113281 105.648438 198.066406 C 127.816406 191.117188 133.765625 163.023438 134.167969 160.980469 C 144.535156 161.0625 155.003906 161.199219 165.558594 161.40625 C 174.472656 161.574219 183.308594 161.785156 192.074219 162.035156 C 192.550781 179.871094 193.945312 200.699219 198.402344 201.183594 C 199.632812 201.3125 200.792969 199.871094 202.515625 197.070312 C 206.121094 191.1875 211.628906 180.214844 214.109375 162.800781 C 220.269531 163.042969 226.460938 163.316406 232.683594 163.605469 C 245.773438 164.230469 258.714844 164.953125 271.503906 165.765625 C 272.484375 164.046875 273.742188 161.484375 274.636719 158.214844 C 275.441406 155.265625 275.769531 152.4375 275.777344 149.78125 C 275.785156 145.996094 275.164062 142.582031 274.386719 139.707031 C 273.792969 137.503906 273.121094 135.617188 272.578125 134.117188 C 268.804688 123.675781 262.441406 116.703125 258.195312 112.828125 C 257.699219 110.976562 253.375 95.179688 249.722656 95.574219 C 246.6875 95.910156 245.578125 107.257812 245.320312 110.308594 C 245.320312 110.332031 245.3125 110.359375 245.3125 110.382812 C 243.90625 110.382812 242.203125 110.382812 240.265625 110.398438 C 237.367188 110.417969 235.042969 110.46875 233.679688 110.5 C 233.027344 110.515625 232.339844 110.527344 231.609375 110.550781 C 230.476562 110.585938 229.246094 110.625 227.9375 110.667969 C 227.175781 109.152344 225.960938 106.929688 224.199219 104.421875 C 223.226562 103.03125 215.585938 92.152344 212.054688 93.394531 C 208.148438 94.777344 210.597656 110.558594 210.75 111.515625 C 202.175781 101.105469 192.484375 92.671875 182.269531 86.203125 C 178.261719 83.65625 174.179688 81.417969 170.046875 79.488281 C 165.363281 77.285156 160.621094 75.476562 155.882812 74.066406 C 149.261719 72.082031 142.640625 70.863281 136.171875 70.40625 C 129.632812 69.941406 123.25 70.246094 117.179688 71.335938 C 112.6875 72.132812 108.363281 73.363281 104.265625 75.015625 C 100.996094 76.328125 97.878906 77.914062 94.9375 79.765625 C 61.949219 100.535156 62.351562 148.097656 62.433594 158.589844 Z M 62.433594 158.589844 " fill-opacity="1" fill-rule="nonzero"/><path fill="#663233" d="M 220.328125 141.371094 C 220.65625 141.371094 220.957031 141.144531 221.035156 140.8125 C 221.132812 140.417969 220.890625 140.023438 220.5 139.925781 C 208.722656 137.054688 192.714844 136.335938 192.554688 136.332031 C 192.144531 136.320312 191.808594 136.625 191.789062 137.03125 C 191.773438 137.433594 192.085938 137.773438 192.488281 137.792969 C 192.648438 137.796875 208.515625 138.511719 220.152344 141.347656 C 220.210938 141.363281 220.269531 141.371094 220.328125 141.371094 Z M 220.328125 141.371094 " fill-opacity="1" fill-rule="nonzero"/><path fill="#663233" d="M 190.835938 144.628906 C 190.863281 144.628906 190.894531 144.628906 190.925781 144.625 C 191.125 144.597656 210.828125 142.148438 219.964844 143.671875 C 220.367188 143.738281 220.742188 143.46875 220.808594 143.070312 C 220.875 142.671875 220.605469 142.296875 220.207031 142.230469 C 210.855469 140.667969 191.5625 143.070312 190.742188 143.171875 C 190.34375 143.222656 190.058594 143.589844 190.109375 143.988281 C 190.15625 144.359375 190.472656 144.628906 190.835938 144.628906 Z M 190.835938 144.628906 " fill-opacity="1" fill-rule="nonzero"/><path fill="#fd9a97" d="M 223.171875 146.777344 C 223.613281 150.847656 229.878906 154.101562 233.738281 151.941406 C 235.484375 150.964844 236.835938 148.820312 236.601562 146.777344 C 236.125 142.621094 229.179688 139.523438 225.496094 141.957031 C 223.96875 142.964844 222.972656 144.933594 223.171875 146.777344 Z M 223.171875 146.777344 " fill-opacity="1" fill-rule="nonzero"/><path fill="#fd9a97" d="M 271.152344 149.261719 C 272.316406 150.125 274.042969 150.230469 275.777344 149.78125 C 275.785156 146 275.164062 142.582031 274.386719 139.707031 C 272.179688 140.738281 270.203125 142.574219 269.699219 144.660156 C 269.289062 146.378906 269.851562 148.289062 271.152344 149.261719 Z M 271.152344 149.261719 " fill-opacity="1" fill-rule="nonzero"/><path fill="#fd9a97" d="M 256.9375 153.8125 C 256.640625 156.878906 257.410156 159.3125 258.933594 159.917969 C 259.414062 160.105469 259.839844 160.066406 260 160.046875 C 261.746094 159.859375 263.257812 157.703125 263.964844 154.753906 C 262.882812 153.65625 261.625 152.125 260.570312 150.097656 C 260.144531 149.277344 259.808594 148.488281 259.546875 147.757812 C 259.601562 148.488281 259.636719 150.300781 258.515625 152.078125 C 258.007812 152.886719 257.410156 153.449219 256.9375 153.8125 Z M 256.9375 153.8125 " fill-opacity="1" fill-rule="nonzero"/><path fill="#663233" d="M 216.03125 111.796875 C 217.992188 111.609375 219.957031 111.421875 221.921875 111.230469 C 221.765625 110.875 221.535156 110.378906 221.222656 109.789062 C 220.980469 109.328125 218.347656 104.410156 217.058594 104.484375 C 215.785156 104.558594 215.910156 109.476562 216.03125 111.796875 Z M 216.03125 111.796875 " fill-opacity="1" fill-rule="nonzero"/><path fill="#663233" d="M 248.929688 110.78125 C 250.433594 110.960938 251.933594 111.136719 253.4375 111.316406 C 253.371094 110.9375 253.265625 110.402344 253.113281 109.769531 C 252.996094 109.269531 251.714844 103.949219 250.734375 103.785156 C 249.765625 103.621094 249.167969 108.480469 248.929688 110.78125 Z M 248.929688 110.78125 " fill-opacity="1" fill-rule="nonzero"/><path fill="#663233" d="M 255.074219 144.359375 C 255.746094 145.972656 256.671875 146.96875 257.261719 147.503906 C 258.121094 148.289062 259.058594 149.144531 260.167969 148.988281 C 261.058594 148.863281 261.621094 148.144531 262.363281 147.195312 C 263.25 146.0625 263.710938 144.945312 263.960938 144.167969 C 262.746094 143.9375 261.191406 143.75 259.390625 143.796875 C 257.695312 143.84375 256.234375 144.085938 255.074219 144.359375 Z M 255.074219 144.359375 " fill-opacity="1" fill-rule="nonzero"/><path fill="#663233" d="M 254.824219 156.898438 C 254.953125 156.898438 255.082031 156.867188 255.199219 156.796875 C 256.199219 156.199219 258.046875 154.832031 259.179688 152.382812 C 259.503906 151.683594 259.726562 151 259.871094 150.347656 C 260.394531 151.332031 261.015625 152.257812 261.734375 153.117188 C 262.84375 154.441406 264.152344 155.578125 265.632812 156.488281 C 265.976562 156.703125 266.425781 156.59375 266.636719 156.25 C 266.851562 155.90625 266.742188 155.457031 266.398438 155.246094 C 265.054688 154.414062 263.863281 153.382812 262.859375 152.179688 C 261.546875 150.609375 260.589844 148.808594 260.015625 146.824219 C 259.910156 146.457031 259.539062 146.234375 259.167969 146.308594 C 258.796875 146.386719 258.542969 146.734375 258.589844 147.113281 C 258.722656 148.226562 258.703125 149.9375 257.851562 151.769531 C 256.882812 153.859375 255.304688 155.027344 254.449219 155.539062 C 254.101562 155.746094 253.988281 156.195312 254.195312 156.542969 C 254.335938 156.773438 254.578125 156.898438 254.824219 156.898438 Z M 254.824219 156.898438 " fill-opacity="1" fill-rule="nonzero"/><path fill="#ed8c3c" d="M 4.53125 175.652344 C 9.976562 179.003906 15.421875 171.601562 34.167969 165.9375 C 44.203125 162.90625 52.398438 162.058594 57.582031 161.792969 C 59.621094 161.6875 61.320312 161.667969 62.503906 161.667969 C 64.195312 158.804688 65.882812 155.945312 67.574219 153.082031 C 65.023438 152.039062 60.160156 150.25 53.84375 149.253906 C 29.683594 145.4375 1.015625 155.902344 0.296875 167.433594 C 0.101562 170.582031 1.863281 174.011719 4.53125 175.652344 Z M 4.53125 175.652344 " fill-opacity="1" fill-rule="nonzero"/><path fill="#663233" d="M 239.269531 142.132812 C 241.648438 142.132812 244.015625 141.585938 245.988281 140.0625 C 246.878906 139.378906 247.648438 138.515625 248.277344 137.507812 C 248.492188 137.164062 248.386719 136.710938 248.046875 136.5 C 247.703125 136.285156 247.25 136.390625 247.035156 136.730469 C 246.5 137.59375 245.84375 138.324219 245.09375 138.90625 C 239.027344 143.585938 227.957031 137.417969 227.84375 137.355469 C 227.492188 137.15625 227.046875 137.277344 226.847656 137.628906 C 226.648438 137.980469 226.773438 138.429688 227.125 138.628906 C 227.472656 138.824219 233.410156 142.132812 239.269531 142.132812 Z M 239.269531 142.132812 " fill-opacity="1" fill-rule="nonzero"/><path fill="#663233" d="M 268.714844 139.996094 C 273.128906 139.996094 274.996094 137.375 275.09375 137.234375 C 275.324219 136.902344 275.238281 136.449219 274.90625 136.21875 C 274.578125 135.988281 274.121094 136.070312 273.890625 136.402344 C 273.789062 136.546875 271.390625 139.792969 265.207031 137.988281 C 264.820312 137.871094 264.414062 138.09375 264.300781 138.484375 C 264.1875 138.871094 264.410156 139.277344 264.796875 139.390625 C 266.28125 139.824219 267.582031 139.996094 268.714844 139.996094 Z M 268.714844 139.996094 " fill-opacity="1" fill-rule="nonzero"/><path fill="#743500" d="M 231.609375 110.554688 C 233.679688 113.28125 235.546875 115.558594 237.089844 117.371094 C 246.484375 128.441406 250.039062 129.664062 252.382812 129.113281 C 252.8125 129.019531 253.199219 128.925781 253.53125 128.582031 C 255.972656 126.050781 249.367188 115.988281 245.320312 110.3125 C 245.320312 110.335938 245.3125 110.363281 245.3125 110.386719 C 243.910156 110.386719 242.203125 110.386719 240.265625 110.398438 C 237.367188 110.421875 235.042969 110.472656 233.679688 110.503906 C 233.03125 110.515625 232.34375 110.53125 231.609375 110.554688 Z M 231.609375 110.554688 " fill-opacity="1" fill-rule="nonzero"/><path fill="#ffeae0" d="M 191.324219 160.796875 C 191.339844 160.796875 191.355469 160.796875 191.371094 160.792969 C 191.773438 160.769531 192.078125 160.421875 192.054688 160.015625 C 192.050781 159.976562 191.792969 155.929688 191.929688 150.863281 C 191.9375 150.457031 191.621094 150.121094 191.214844 150.109375 C 190.824219 150.078125 190.476562 150.417969 190.464844 150.824219 C 190.332031 155.960938 190.589844 160.070312 190.59375 160.113281 C 190.617188 160.5 190.941406 160.796875 191.324219 160.796875 Z M 191.324219 160.796875 " fill-opacity="1" fill-rule="nonzero"/><path fill="#ffeae0" d="M 134.992188 158.5625 C 135.351562 158.5625 135.667969 158.296875 135.714844 157.929688 C 137.226562 146.535156 137.433594 135.667969 136.3125 126.492188 C 136.261719 126.09375 135.902344 125.808594 135.496094 125.855469 C 135.09375 125.90625 134.808594 126.269531 134.859375 126.671875 C 135.964844 135.722656 135.761719 146.464844 134.265625 157.734375 C 134.210938 158.136719 134.496094 158.503906 134.894531 158.558594 C 134.925781 158.5625 134.960938 158.5625 134.992188 158.5625 Z M 134.992188 158.5625 " fill-opacity="1" fill-rule="nonzero"/><path fill="#ffeae0" d="M 62.257812 156.890625 C 62.261719 156.890625 62.265625 156.890625 62.265625 156.890625 C 62.671875 156.882812 62.996094 156.554688 62.992188 156.148438 C 62.960938 153.589844 63.132812 152.789062 63.136719 152.78125 C 63.222656 152.390625 62.980469 151.996094 62.589844 151.90625 C 62.199219 151.816406 61.808594 152.046875 61.714844 152.4375 C 61.691406 152.527344 61.496094 153.394531 61.527344 156.164062 C 61.53125 156.566406 61.859375 156.890625 62.257812 156.890625 Z M 62.257812 156.890625 " fill-opacity="1" fill-rule="nonzero"/><path fill="#ffeae0" d="M 272.746094 164.5625 C 272.992188 164.5625 273.234375 164.433594 273.371094 164.207031 C 276.460938 159.082031 276.507812 152.964844 276.507812 152.707031 C 276.507812 152.304688 276.179688 151.976562 275.777344 151.976562 C 275.371094 151.976562 275.046875 152.300781 275.042969 152.707031 C 275.042969 152.765625 274.992188 158.679688 272.117188 163.453125 C 271.910156 163.796875 272.019531 164.246094 272.367188 164.457031 C 272.484375 164.527344 272.617188 164.5625 272.746094 164.5625 Z M 272.746094 164.5625 " fill-opacity="1" fill-rule="nonzero"/><path fill="#ffeae0" d="M 214.582031 161.695312 C 214.933594 161.695312 215.246094 161.4375 215.300781 161.074219 C 215.316406 160.976562 215.683594 158.59375 215.683594 155.453125 C 215.683594 155.050781 215.355469 154.722656 214.953125 154.722656 C 214.550781 154.722656 214.222656 155.050781 214.222656 155.453125 C 214.222656 158.472656 213.859375 160.824219 213.855469 160.847656 C 213.792969 161.246094 214.066406 161.621094 214.464844 161.683594 C 214.503906 161.691406 214.542969 161.695312 214.582031 161.695312 Z M 214.582031 161.695312 " fill-opacity="1" fill-rule="nonzero"/><path fill="#ffeae0" d="M 197.90625 200.417969 C 198.136719 200.417969 198.359375 200.3125 198.503906 200.113281 C 200.925781 196.738281 203.046875 189.871094 203.136719 189.582031 C 203.257812 189.195312 203.039062 188.785156 202.652344 188.667969 C 202.265625 188.550781 201.855469 188.765625 201.738281 189.152344 C 201.71875 189.21875 199.597656 196.082031 197.3125 199.257812 C 197.078125 199.585938 197.152344 200.046875 197.480469 200.28125 C 197.609375 200.375 197.761719 200.417969 197.90625 200.417969 Z M 197.90625 200.417969 " fill-opacity="1" fill-rule="nonzero"/><path fill="#ffeae0" d="M 196.882812 197.804688 C 197.191406 197.804688 197.480469 197.605469 197.578125 197.292969 C 198.054688 195.800781 198.453125 194.265625 198.765625 192.734375 C 199.019531 191.480469 199.226562 190.199219 199.371094 188.925781 C 199.417969 188.523438 199.128906 188.160156 198.726562 188.113281 C 198.328125 188.070312 197.964844 188.355469 197.917969 188.757812 C 197.777344 189.988281 197.578125 191.230469 197.332031 192.441406 C 197.027344 193.921875 196.644531 195.40625 196.183594 196.847656 C 196.0625 197.234375 196.273438 197.644531 196.660156 197.769531 C 196.734375 197.792969 196.808594 197.804688 196.882812 197.804688 Z M 196.882812 197.804688 " fill-opacity="1" fill-rule="nonzero"/><path fill="#ffeae0" d="M 97.273438 228.457031 C 97.675781 228.457031 98 228.132812 98.003906 227.730469 C 98.050781 222.042969 96.070312 217.230469 95.988281 217.03125 C 95.832031 216.65625 95.402344 216.484375 95.03125 216.636719 C 94.660156 216.792969 94.480469 217.21875 94.636719 217.59375 C 94.65625 217.640625 96.585938 222.339844 96.542969 227.71875 C 96.539062 228.125 96.863281 228.453125 97.265625 228.457031 C 97.269531 228.457031 97.273438 228.457031 97.273438 228.457031 Z M 97.273438 228.457031 " fill-opacity="1" fill-rule="nonzero"/><path fill="#ffeae0" d="M 94.832031 228.457031 C 94.859375 228.457031 94.890625 228.457031 94.921875 228.453125 C 95.324219 228.402344 95.609375 228.035156 95.558594 227.636719 C 95.082031 223.835938 92.527344 217.96875 92.417969 217.71875 C 92.257812 217.347656 91.824219 217.179688 91.457031 217.34375 C 91.085938 217.503906 90.917969 217.933594 91.078125 218.304688 C 91.105469 218.363281 93.65625 224.230469 94.105469 227.816406 C 94.152344 228.1875 94.46875 228.457031 94.832031 228.457031 Z M 94.832031 228.457031 " fill-opacity="1" fill-rule="nonzero"/><path fill="#743500" d="M 161.183594 104.867188 C 163.898438 106.636719 176.269531 96.839844 182.269531 86.203125 C 178.261719 83.65625 174.179688 81.417969 170.046875 79.488281 C 168.121094 82.558594 166.367188 85.890625 165.042969 88.925781 C 163.554688 92.339844 158.769531 103.300781 161.183594 104.867188 Z M 161.183594 104.867188 " fill-opacity="1" fill-rule="nonzero"/><path fill="#743500" d="M 136.171875 70.40625 C 136.144531 72.71875 136.222656 75.074219 136.296875 77.34375 C 136.523438 84.242188 137 98.449219 141.628906 99.386719 C 146.164062 100.308594 153.1875 88.25 155.355469 77.34375 C 155.542969 76.378906 155.726562 75.273438 155.882812 74.066406 C 149.261719 72.082031 142.640625 70.863281 136.171875 70.40625 Z M 136.171875 70.40625 " fill-opacity="1" fill-rule="nonzero"/><path fill="#743500" d="M 104.265625 75.015625 C 105.539062 78.097656 107.097656 81.164062 108.386719 83.703125 C 110.601562 88.0625 114.472656 95.699219 116.851562 95.027344 C 119.375 94.324219 118.816406 85.324219 118.714844 83.703125 C 118.597656 81.84375 118.402344 76.488281 117.179688 71.335938 C 112.6875 72.132812 108.363281 73.363281 104.265625 75.015625 Z M 104.265625 75.015625 " fill-opacity="1" fill-rule="nonzero"/></svg>